<svg id="Layer_1" data-name="Layer 1" xmlns="http://www.w3.org/2000/svg" viewBox="0 0 598 227"><defs><style>.cls-1{fill:#ccc;}.cls-2{fill:#f15a24;}</style></defs><path class="cls-1" d="M44.09,147.91a19.58,19.58,0,0,1-19.58-19.59V48.58a19.59,19.59,0,0,1,39.17,0v79.74A19.59,19.59,0,0,1,44.09,147.91Z"/><path class="cls-1" d="M97.34,202.09a72.74,72.74,0,1,1,72.74-72.74A72.82,72.82,0,0,1,97.34,202.09Zm0-106.31a33.57,33.57,0,1,0,33.57,33.57A33.61,33.61,0,0,0,97.34,95.78Z"/><circle class="cls-2" cx="150.41" cy="181.39" r="19.58"/><path class="cls-1" d="M244.9,104.13a32.48,32.48,0,0,1,24,10.18,35,35,0,0,1,0,48.88,33.62,33.62,0,0,1-46.6,1.41v3a5.49,5.49,0,0,1-1.66,4.05,5.63,5.63,0,0,1-4,1.65,5.71,5.71,0,0,1-4.11-1.65,5.49,5.49,0,0,1-1.66-4.05V86.47a5.47,5.47,0,0,1,1.66-4,5.58,5.58,0,0,1,4.11-1.72,5.77,5.77,0,0,1,5.7,5.76v26.37A32.74,32.74,0,0,1,244.9,104.13Zm0,57.71a21.54,21.54,0,0,0,15.94-6.75,23.63,23.63,0,0,0,0-32.68,22.21,22.21,0,0,0-31.89,0,23.48,23.48,0,0,0,0,32.68A21.54,21.54,0,0,0,244.9,161.84Z"/><path class="cls-1" d="M295.42,80.83a7.45,7.45,0,0,1,3.59,1,7,7,0,0,1,2.76,2.73,7.25,7.25,0,0,1,0,7.33,7,7,0,0,1-2.73,2.73,7.27,7.27,0,0,1-7.29,0,7,7,0,0,1-2.73-2.73,7.3,7.3,0,0,1-1-3.65,7.46,7.46,0,0,1,1-3.68,6.72,6.72,0,0,1,2.76-2.73A7.61,7.61,0,0,1,295.42,80.83Zm0,23.3a5.88,5.88,0,0,1,5.77,5.77v57.7a5.43,5.43,0,0,1-1.72,4.05,5.78,5.78,0,0,1-8.09,0,5.4,5.4,0,0,1-1.72-4.05V109.9a5.88,5.88,0,0,1,5.76-5.77Z"/><path class="cls-1" d="M322.65,80.71a5.75,5.75,0,0,1,5.7,5.76V167.6a5.52,5.52,0,0,1-1.65,4.05,5.67,5.67,0,0,1-4.05,1.65,5.74,5.74,0,0,1-4.11-1.65,5.52,5.52,0,0,1-1.65-4.05V86.47a5.5,5.5,0,0,1,1.65-4A5.61,5.61,0,0,1,322.65,80.71Z"/><path class="cls-1" d="M350.06,80.71a5.75,5.75,0,0,1,5.7,5.76V167.6a5.52,5.52,0,0,1-1.65,4.05,5.67,5.67,0,0,1-4.05,1.65,5.74,5.74,0,0,1-4.11-1.65,5.52,5.52,0,0,1-1.65-4.05V86.47a5.5,5.5,0,0,1,1.65-4A5.61,5.61,0,0,1,350.06,80.71Z"/><path class="cls-1" d="M376.37,163.19A34.56,34.56,0,0,1,369,152.27a34.45,34.45,0,0,1,7.42-38,35,35,0,0,1,11.1-7.42A34,34,0,0,1,401,104.13a33.67,33.67,0,0,1,24.59,10.18,34.35,34.35,0,0,1,7.42,11,33.88,33.88,0,0,1,2.76,13.49,5.49,5.49,0,0,1-1.66,4,5.61,5.61,0,0,1-4.11,1.72H378.39a22.45,22.45,0,0,0,8.22,12.32A22.86,22.86,0,0,0,401,161.84q12.75,0,19.68-7.79a5.31,5.31,0,0,1,3.93-1.9,5.74,5.74,0,0,1,4.17,1.41,5.71,5.71,0,0,1,.43,8.09Q418.93,173.3,401,173.3A33.8,33.8,0,0,1,376.37,163.19Zm47.21-30.11a23.33,23.33,0,0,0-45.19,0Z"/><path class="cls-1" d="M476.75,104.13a5.77,5.77,0,0,1,0,11.53,18.48,18.48,0,0,0-14.35,6.75,24.06,24.06,0,0,0-5.95,16.37V167.6a5.52,5.52,0,0,1-1.65,4.05,5.67,5.67,0,0,1-4.05,1.65,5.74,5.74,0,0,1-4.11-1.65A5.52,5.52,0,0,1,445,167.6V109.9a5.51,5.51,0,0,1,1.65-4.05,5.65,5.65,0,0,1,4.11-1.72,5.58,5.58,0,0,1,4.05,1.72,5.51,5.51,0,0,1,1.65,4.05v2.27A29.27,29.27,0,0,1,476.75,104.13Z"/><path class="cls-1" d="M532.31,80.71A43.5,43.5,0,0,1,564.5,94.32a45.05,45.05,0,0,1,13.31,32.75,45,45,0,0,1-13.31,32.68,45,45,0,0,1-64.33,0,44.84,44.84,0,0,1-13.36-32.68,44.94,44.94,0,0,1,13.36-32.75A43.33,43.33,0,0,1,532.31,80.71Zm0,81.13a32.36,32.36,0,0,0,24-10.18,35.31,35.31,0,0,0,0-49.24,33.46,33.46,0,0,0-48.07,0,35.31,35.31,0,0,0,0,49.24A32.49,32.49,0,0,0,532.31,161.84Z"/><circle class="cls-2" cx="566.14" cy="162.19" r="10.1"/></svg>