<?xml version="1.0" encoding="UTF-8"?>
<svg id="Layer_1" xmlns="http://www.w3.org/2000/svg" viewBox="0 0 512 512">
  <defs>
    <style>
      .cls-1 {
        fill: #fff;
      }
    </style>
  </defs>
  <path class="cls-1" d="M162.54,135.9c-10.84-9.47-18.24-19.73-22.58-32.06-12.92-36.72,5.47-76.84,41.76-91.12,35.89-14.12,76.74,2.77,92.04,38.39,1.76,4.09,3.89,4.82,7.76,4.82,72-.09,144-.06,216.01-.06,1.97,0,3.93,0,6.17,0v207.82h-79.4v29.94c9.53,2.43,19.01,4.81,28.47,7.27,12.43,3.23,19.18,11.86,19.2,24.53.02,21.34-.16,42.68.06,64.02.15,14.66-4.54,27.4-13.72,38.67-5.47,6.71-10.83,13.52-16.31,20.38,10.58,16.85,15.23,35.06,13.75,55.17h-144.38c.92-10.42,1.83-20.74,2.8-31.64-1.31,0-3.23,0-5.15,0-91.5,0-183.01,0-274.51,0-17.12,0-26.6-9.46-26.6-26.54,0-94.36.19-188.72-.2-283.07-.06-15.04,11.22-26.95,26.83-26.71,40.33.62,80.67.21,121,.21h7ZM23.87,216v6.32c0,73.7,0,147.39,0,221.09,0,10.44,2.18,12.64,12.53,12.64,92.35,0,184.7-.06,277.05.14,6.28.01,10.62-1.12,12.11-8.19-5.19-6.49-10.64-13.44-16.23-20.27-7.02-8.59-11.74-18.28-12.91-29.29-.77-7.26-.93-14.7-.35-21.97,1.62-20.22-1.96-39.07-13.03-56.3-1.15-1.78-2.13-3.93-2.34-5.99-.36-3.57-.77-7.4.1-10.79,2.98-11.53,13.91-17.82,26.64-14.86,6.96,1.62,13.53,4.88,20.26,7.4v-32.09h-144v-47.83H23.87ZM327.98,367.85c0-2.03,0-3.66,0-5.29,0-10.33.12-20.67-.04-31-.22-14.44-9.95-25.52-24.14-27.27-2.14-.26-5.2.58-6.54,2.07-1.03,1.15-.62,4.38.19,6.25,2.36,5.49,5.2,10.79,7.92,16.12,4.55,8.91,6.81,18.29,6.61,28.36-.22,11-.08,22-.04,33,.03,9.82,2.98,18.66,9.12,26.37,5.5,6.91,10.92,13.89,16.66,20.59,1.29,1.51,3.76,2.85,5.7,2.86,27,.18,53.99.18,80.99,0,1.96-.01,4.47-1.26,5.75-2.77,5.84-6.84,11.35-13.95,16.95-21,5.45-6.86,8.64-14.76,8.74-23.45.28-22.5.29-45.01-.08-67.5-.04-2.7-2.51-6.26-4.9-7.8-2.88-1.86-6.87-2-11.02-3.05v53.23h-16.04v-57.33c-5.31-1.28-10.28-2.49-15.94-3.85v61.17h-16.08v-65.33c-5.31-1.29-10.29-2.49-15.95-3.86v69.36h-15.86c0-2.18,0-4.14,0-6.09,0-45.17.01-90.35-.01-135.52,0-6.23-3.1-10.1-7.93-10.16-4.85-.06-8,3.82-8.1,9.99-.02,1.17,0,2.33,0,3.5,0,44.17,0,88.35,0,132.52v5.87h-15.97ZM473.23,72.11h-193.57c1.5,16.24-1.93,31.23-10.15,45.16,15.26,12.56,30.91,24.05,44.83,37.35,11.4,10.89,23.65,15.69,38.92,13.23,2.31-.37,4.91-1.06,6.65-2.49,25.93-21.17,51.73-42.48,77.57-63.76,11.65-9.6,23.28-19.21,35.75-29.49ZM487.89,81.02c-38.33,31.58-75.79,62.43-113.83,93.77,38.19,22.47,75.75,44.56,113.83,66.96V81.02ZM263.93,79.83c-.03-30.58-25.48-56.01-56.03-55.99-30.56.02-55.99,25.48-55.98,56.04.02,30.56,25.49,56.01,56.03,55.99,30.56-.02,56-25.5,55.98-56.05ZM183.72,152.34c-.71-.22-1.01-.39-1.32-.39-49.83-.03-99.67-.08-149.5-.03-5.94,0-8.96,3.36-9,9.59-.08,11.84-.03,23.67,0,35.51,0,.93.32,1.85.46,2.65h159.35v-47.33ZM200.07,241.77c38.29-22.53,75.77-44.58,113.83-66.98-18.45-15.19-36.27-29.86-54.29-44.69-16.64,16.46-36.6,23.33-59.54,21.67v90ZM466.09,247.7c-30.38-17.86-59.9-34.32-88.41-52.37-13.89-8.79-27.8-13.48-43.98-11.41-2.06.26-4.29.68-6.04,1.7-34.03,19.9-68.01,39.91-101.99,59.91-.83.49-1.51,1.23-2.6,2.14h104.91c0-7.89-.03-15.52,0-23.14.06-14.08,10.35-24.61,24.01-24.6,13.64,0,23.89,10.54,23.95,24.66.03,7.62,0,15.24,0,23.11h90.14ZM439.24,487.84c-1.08-11.29-4.85-21.13-10.72-30.17-.62-.96-2.45-1.59-3.72-1.6-27.17-.09-54.34-.08-81.5-.02-1.2,0-2.96.29-3.5,1.09-6.16,9.22-10.06,19.28-11.04,30.7h110.48ZM407.76,264.25h-31.61v17.36c9.89,2.48,19.65,4.94,29.42,7.36.62.15,1.31.02,2.19.02v-24.74Z"/>
  <path class="cls-1" d="M173.6,342.37c3.63,1.42,6.85,2.68,10.3,4.03,0,13.72.05,27.37-.1,41.02-.01,1.07-1.26,2.55-2.31,3.09-2.33,1.21-4.91,1.94-7.31,2.83-.07.51-.25.88-.15,1.14q3.83,9.55-3.41,16.78c-6.36,6.36-12.94,12.52-18.98,19.17-3.04,3.35-5.65,3.93-9.3,1.5-1.34-.9-2.98-1.36-4.36-1.97-.46.37-.84.52-.94.77q-3.8,9.27-13.84,9.27c-10.82,0-21.64,0-32.8,0-1.35-3.34-2.69-6.64-3.98-9.82-.44-.05-.67-.14-.77-.07-7.4,5.57-12.44,2.34-17.67-3.84-5.57-6.59-11.91-12.6-18.33-18.38-3.49-3.14-4.21-5.88-1.6-9.7.83-1.2,1.27-2.67,2.15-4.59-3.47-1.37-6.76-2.68-10.3-4.08,0-13.68-.05-27.32.1-40.97.01-1.07,1.26-2.55,2.32-3.09,2.34-1.19,4.92-1.9,7.28-2.77.09-.58.28-.95.17-1.21q-3.83-9.52,3.42-16.77c6.36-6.36,12.93-12.53,18.99-19.16,3.01-3.3,5.61-4.06,9.29-1.54,1.33.91,2.96,1.39,4.35,2.01.47-.38.84-.53.94-.78q3.76-9.27,13.83-9.27c10.82,0,21.64,0,32.79,0,1.35,3.34,2.69,6.65,3.98,9.82.45.05.68.14.77.07,7.75-6.05,12.77-1.72,18,4.19,5.61,6.35,11.7,12.35,18.02,18,3.53,3.16,4.13,5.91,1.57,9.71-.82,1.21-1.26,2.68-2.14,4.6ZM143.95,414.59c.86-.71,1.79-1.36,2.59-2.14,2.39-2.33,4.48-5.04,7.14-6.99,4.61-3.38,5.09-6.87,2.21-11.75-2.42-4.1-.02-11.32,4.45-12.36,7.22-1.67,8.51-6.04,7.63-12.28-.16-1.14-.21-2.37,0-3.49,1.18-5.91-1.06-9.13-7.02-10.62-4.47-1.12-7.82-8.38-5.39-12,3.9-5.82,2.04-9.65-2.8-13.29-1.32-.99-2.56-2.2-3.52-3.53-3.11-4.27-6.39-5.27-11.27-2.27-4.46,2.74-11.67.08-12.94-4.91-1.63-6.41-5.35-7.95-11.15-7.04-1.14.18-2.36.21-3.49,0-6.36-1.19-10.23.87-11.67,7.63-.79,3.68-8.46,7.03-11.47,4.94-6.16-4.28-10.22-1.92-14.05,3.1-.9,1.18-1.98,2.31-3.18,3.17-4.38,3.12-5.04,6.53-2.16,11.3,2.56,4.25.04,11.6-4.6,12.7-6.95,1.65-8.32,5.81-7.4,11.91.17,1.14.2,2.36,0,3.49-1.06,6,.9,9.58,7.28,10.93,3.96.83,7.43,8.43,5.27,11.69-3.89,5.88-2.36,9.9,2.83,13.69,1.99,1.46,3.78,3.33,5.29,5.29,2.15,2.81,4.26,2.74,7.28,1.29,8.25-3.96,13.15-1.87,16.23,6.98,1.14,3.29,2.84,4.33,6.18,4.07,3.81-.3,7.68-.33,11.49,0,3.43.3,5.01-.94,6.12-4.15,3.07-8.86,8.04-10.77,16.71-6.83,1.05.48,2.13.91,3.43,1.46Z"/>
  <path class="cls-1" d="M40.15,279.58v-47.38h127.35v47.38H40.15ZM151.71,248.26H56.28v15.43h95.43v-15.43Z"/>
  <path class="cls-1" d="M200.19,311.68v-15.35h63.41v15.35h-63.41Z"/>
  <path class="cls-1" d="M263.68,328.32v15.39h-63.33v-15.39h63.33Z"/>
  <path class="cls-1" d="M263.7,360.35v15.35h-63.51v-15.35h63.51Z"/>
  <path class="cls-1" d="M263.64,407.72c-.85.1-1.48.25-2.11.25-20.27.01-40.55,0-61.2,0v-15.65h63.31v15.39Z"/>
  <path class="cls-1" d="M232.38,424.13h31.16v15.54h-31.16v-15.54Z"/>
  <path class="cls-1" d="M215.72,424.27v15.41h-15.49v-15.41h15.49Z"/>
  <path class="cls-1" d="M184.24,40.34c16.39-2.18,27.73,4.47,31.14,18.12.16.64.4,1.3.4,1.95.02,19.62.02,39.25.02,59.17h-15.85c0-1.63,0-3.37,0-5.12,0-15.33,0-30.66,0-45.98,0-10.4-2.05-12.47-12.52-12.63-.97-.02-1.95-.09-3.19-.16v-15.33Z"/>
  <path class="cls-1" d="M55.66,168.18v15.35h-15.44v-15.35h15.44Z"/>
  <path class="cls-1" d="M72.03,183.47v-15.17h15.52v15.17h-15.52Z"/>
  <path class="cls-1" d="M119.6,183.64h-15.29v-15.38h15.29v15.38Z"/>
  <path class="cls-1" d="M151.9,368.11c-.03,22.16-17.88,39.9-40.11,39.88-22.15-.03-39.89-17.88-39.86-40.13.03-22.17,17.86-39.89,40.11-39.86,22.17.03,39.89,17.85,39.86,40.12ZM135.9,368.09c.07-12.92-10.8-23.94-23.76-24.1-12.87-.16-23.98,10.68-24.22,23.64-.25,13.03,10.93,24.37,24.01,24.36,12.91-.01,23.91-10.97,23.98-23.9Z"/>
</svg>