<?xml version="1.0" encoding="UTF-8"?>
<svg id="Layer_1" xmlns="http://www.w3.org/2000/svg" viewBox="0 0 512 512">
  <defs>
    <style>
      .cls-1 {
        fill: #fff;
      }
    </style>
  </defs>
  <path class="cls-1" d="M197.25,10.89c.86.34,1.7.77,2.59,1.01,14.62,3.95,24.63,13,29.23,27.43,1.14,3.58,2.76,4.23,6,4.17,9.07-.16,18.15.03,27.23-.09,5.61-.07,10.09,1.93,14.04,5.91,1.33,1.34,3.78,2.16,5.73,2.18,17.83.16,35.67-.01,53.5.13,16.7.14,29.06,9.22,32.99,24.32.99,3.79,1.28,7.86,1.3,11.8.1,29.46.06,58.93.06,88.39,0,1.87,0,3.74,0,5.68,9.99,1.06,19.49,1.81,28.9,3.12,32.62,4.55,63.23,15.13,91.88,31.35,6.5,3.68,9.87,9.41,9.46,16.95-1.35,24.98-5.22,49.63-10.57,74.04-8.24,37.58-20.28,73.82-39.16,107.52-18.68,33.33-42.83,61.53-76.12,81.25-8.75,5.18-17.04,5.9-25.34-.16-11.15-8.14-22.25-16.38-33.09-24.93-2.66-2.1-4.97-3.29-8.4-3.29-85.35.09-170.7-.18-256.04.27-18.4.1-33.7-4.8-40.52-26.92,0-121.07,0-242.15,0-363.22.23-.2.58-.36.67-.62,6.29-18.35,16.39-25.57,35.87-25.59,17.01-.01,34.02.06,51.02-.09,1.96-.02,4.46-.75,5.76-2.09,3.91-4.02,8.36-6.05,13.96-6,10.63.1,21.27.03,31.98.03,3.43-13.51,11.03-23.36,23.56-29.09,2.97-1.36,6.13-2.32,9.2-3.46,4.78,0,9.56,0,14.34,0ZM320.28,183.88v-83.18c-13.71,0-27.07-.05-40.43.09-1.16.01-2.61.98-3.42,1.93-3.68,4.34-8.4,6.19-13.92,6.19-48.1.02-96.2.02-144.3,0-5.72,0-10.55-1.96-14.28-6.46-.64-.77-1.73-1.66-2.61-1.67-13.65-.11-27.31-.07-41.1-.07v317.43h213.99c-.37-1.01-.51-1.63-.8-2.15-18.16-32.08-30.01-66.54-38.36-102.29-6.15-26.36-10.5-53.02-12.02-80.08-.45-7.96,2.91-14.07,9.94-17.6,11.07-5.56,22.03-11.59,33.64-15.72,17.43-6.19,35.38-10.91,53.68-16.42ZM361.79,198.6c-42.27.17-81.69,10.33-118.58,30.42-3.13,1.7-4.32,3.61-3.76,7.15,3.83,24.31,6.45,48.87,11.53,72.91,8.56,40.51,22.84,79,45.81,113.84,15.9,24.12,35.58,44.37,60.69,59.07,3,1.76,5.28,1.71,8.24-.04,17.9-10.53,33.29-23.94,46.48-39.92,22.59-27.37,37.64-58.76,48.79-92.17,12.49-37.41,19.46-75.94,22.81-115.19.29-3.41-1.74-4.42-3.99-5.65-36.85-20.16-76.3-30.25-118.01-30.42ZM100.43,68.15c-18.49,0-36.47,0-54.45,0-12.48,0-18.79,6.29-18.79,18.77-.01,115.15-.01,230.3,0,345.46,0,12.42,6.43,18.97,18.74,18.97,82.17.02,164.34.01,246.51,0,1.31,0,2.62-.2,4.5-.35-3.21-4.3-6.21-7.83-8.64-11.71-2.01-3.22-4.45-4.18-8.18-4.17-72.77.11-145.55.09-218.32.07-11.52,0-18.33-6.64-18.33-17.89-.02-105.12-.02-210.24,0-315.35,0-10.93,6.51-17.51,17.48-17.6,11.46-.1,22.93-.02,34.4-.04,1.68,0,3.36-.15,5.1-.24v-15.92ZM117.24,59.82v32.2h145.85v-32.21c-13.28,0-26.15.06-39.02-.03-6.13-.04-9.03-2.89-9.51-8.91-1.07-13.51-10.57-23.08-23.5-23.66-12.52-.56-23.07,8.76-25.04,22.13-1.38,9.38-2.65,10.46-12.28,10.47-12.06,0-24.13,0-36.51,0ZM280.38,83.65c.77.32,1.05.54,1.33.55,11.94.05,23.87.09,35.81.12,13.81.03,19.64,5.87,19.65,19.8.02,24.36,0,48.72,0,73.08v6.05c5.71-.41,10.7-.76,16.03-1.14,0-4.95,0-9.38,0-13.82,0-27.86.04-55.72-.03-83.59-.02-9.05-6.18-16.3-14.58-16.41-19.1-.25-38.2-.03-57.3.03-.25,0-.51.33-.92.62v14.73Z"/>
  <path class="cls-1" d="M230.8,174.21c-17.99,0-35.98.02-53.97-.03-1.88,0-3.85-.15-5.61-.74-3.74-1.27-5.63-4.18-5.37-8.08.26-3.87,2.41-6.55,6.34-7.34,1.85-.37,3.79-.44,5.69-.44,35.5-.02,71.01-.02,106.51-.02.32,0,.64,0,.96,0,7.11.08,11.16,3.13,11.11,8.37-.05,5.24-4.12,8.27-11.2,8.28-18.15.01-36.3,0-54.45,0Z"/>
  <path class="cls-1" d="M100.79,366.14c8.59-8.61,16.75-17.09,25.31-25.15,2.08-1.96,5.55-3.56,8.26-3.39,2.23.14,5.62,2.85,6.07,4.94.6,2.78-.21,6.94-2.08,8.98-8.05,8.8-16.71,17.05-25.16,25.5-2.25,2.25-4.42,4.6-6.81,6.7-3.82,3.35-7.77,3.35-11.57-.02-2.5-2.22-4.81-4.65-7.13-7.05-3.93-4.06-4.35-8.83-1.16-12.3,3.26-3.55,7.8-3.49,12.3.16.49.4.97.81,1.96,1.64Z"/>
  <path class="cls-1" d="M100.86,170.54c8.19-8.29,16.19-16.42,24.24-24.51,1.33-1.34,2.72-2.82,4.37-3.6,3.66-1.74,7.14-1.15,9.89,2.02,2.71,3.11,2.72,7.53-.35,10.84-4.31,4.66-8.91,9.05-13.4,13.55-6.06,6.07-12.08,12.18-18.21,18.18-4.77,4.66-8.85,4.59-13.62-.04-2.05-1.99-4.07-4.02-6.06-6.07-3.98-4.11-4.43-8.69-1.23-12.24,3.44-3.82,7.79-3.71,12.56.32.36.31.72.62,1.81,1.55Z"/>
  <path class="cls-1" d="M100.88,301.02c8.91-8.99,17.37-17.63,25.96-26.14,3.61-3.58,7.62-3.9,11.16-1.27,3.15,2.33,4.24,6.76,2.35,10.26-.66,1.23-1.68,2.32-2.68,3.33-10,10.04-20,20.09-30.06,30.07-4.92,4.88-9.11,4.84-14.03.06-2.06-2-4.1-4.01-6.07-6.09-3.86-4.06-4.16-8.89-.83-12.3,3.18-3.26,7.86-3.19,12,.18.59.48,1.15,1.01,2.2,1.92Z"/>
  <path class="cls-1" d="M100.81,235.81c8.67-8.75,17.08-17.16,25.41-25.66,3.1-3.16,6.56-4.5,10.7-2.43,4.7,2.34,6.07,8.64,2.28,12.54-10.95,11.29-22.1,22.37-33.37,33.34-3.16,3.08-7.43,2.78-10.78-.22-2.72-2.43-5.25-5.08-7.76-7.73-3.66-3.86-3.86-8.5-.65-11.88,3.3-3.47,7.69-3.48,11.89-.02.61.5,1.17,1.05,2.28,2.06Z"/>
  <path class="cls-1" d="M199,353.27c7.32,0,14.63-.05,21.95.01,6.33.05,10.08,3.19,10.11,8.29.03,5.07-3.73,8.34-10.04,8.38-15.11.07-30.22.08-45.33,0-6.3-.04-10.04-3.41-9.9-8.53.13-4.91,3.84-8.06,9.83-8.13,7.79-.08,15.59-.02,23.38-.02Z"/>
  <path class="cls-1" d="M190.06,304.5c-5.24,0-10.48.12-15.71-.03-5.26-.15-8.63-3.51-8.56-8.21.07-4.6,3.63-8.03,8.78-8.08,10.47-.1,20.95-.1,31.42,0,5.28.05,8.67,3.31,8.74,8.05.07,4.77-3.21,8.09-8.48,8.24-5.39.15-10.79.03-16.19.03Z"/>
  <path class="cls-1" d="M186.35,239.3c-4.12,0-8.25.12-12.37-.03-4.78-.18-8.19-3.68-8.2-8.14,0-4.53,3.28-7.97,8.18-8.06,8.24-.15,16.5-.15,24.74.02,4.59.09,7.86,3.51,7.99,7.79.14,4.38-3.31,8.16-7.98,8.37-4.12.19-8.25.04-12.37.04Z"/>
  <path class="cls-1" d="M359.04,214.58c35.09.41,66.15,6.74,95.72,20.03,8.07,3.63,11.86,8.76,11.02,17.07-6.35,62.77-22.31,122.3-61.71,173.16-9.08,11.73-20.34,21.85-31.19,32.09-7.21,6.8-15.01,6.37-22.81.06-25.32-20.51-43.84-46.32-58.17-75.32-16.26-32.9-25.86-67.85-31.46-103.98-1.29-8.32-2.26-16.7-3.14-25.07-.85-8.11,2.39-14,9.77-17.37,24.5-11.19,50.2-17.86,77.09-19.78,5.87-.42,11.75-.71,14.89-.89ZM361.59,445.18c2.81-2.39,5.41-4.46,7.86-6.7,28.55-26.06,46.97-58.6,59.88-94.53,10.09-28.07,15.98-57.11,19.64-86.69.73-5.88-.92-7.88-5.96-9.87-19.47-7.7-39.46-13.01-60.33-15.02-36.51-3.53-71.58,1.82-105.33,16.23-3.09,1.32-3.98,2.76-3.4,6.01,1.08,6.1,1.64,12.28,2.55,18.41,5.06,34.28,13.91,67.48,28.92,98.83,13.49,28.16,31.21,53.16,56.18,73.32Z"/>
  <path class="cls-1" d="M343.9,341.56c14.22-18.98,27.55-36.78,40.91-54.58,1.24-1.65,2.44-3.38,3.92-4.79,2.89-2.74,7.5-2.91,10.48-.39,3.12,2.64,4.17,5.98,2.35,9.81-.74,1.56-1.84,2.96-2.89,4.36-15.07,20.11-30.15,40.2-45.24,60.29-5.27,7.02-9.69,7.27-15.99.97-4.5-4.5-9.05-8.95-13.48-13.52-4.07-4.19-4.27-8.63-.71-12.21,3.39-3.42,8.22-3.19,12.26.62,1.5,1.42,3,2.86,4.38,4.39,1.27,1.41,2.38,2.97,4.01,5.03Z"/>
</svg>