<svg width="50" height="50" viewBox="0 0 50 50" fill="none" xmlns="http://www.w3.org/2000/svg">
<rect width="50" height="50" rx="25" fill="#E5F2D7"/>
<path d="M38.4179 29.5429C38.8084 29.9334 38.8084 30.5666 38.4179 30.9571L33.5821 35.7929C33.1916 36.1834 32.5584 36.1834 32.1679 35.7929L29.2071 32.8321C28.8166 32.4416 28.8166 31.8084 29.2071 31.4179L29.6679 30.9571C30.0584 30.5666 30.6916 30.5666 31.0821 30.9571L32.1679 32.0429C32.5584 32.4334 33.1916 32.4334 33.5821 32.0429L36.5429 29.0821C36.9334 28.6916 37.5666 28.6916 37.9571 29.0821L38.4179 29.5429ZM17.25 11.5C15.8625 11.5 14.75 12.6125 14.75 14V34C14.75 35.3875 15.8625 36.5 17.25 36.5H27.0125C26.35 35.3625 26 34.0625 26 32.75C26 32.3375 26.0375 31.9125 26.1 31.5H17.25V29H27.0125C27.5875 28 28.3875 27.125 29.35 26.5H17.25V24H32.25V25.35C32.6625 25.2875 33.0875 25.25 33.5 25.25C33.925 25.25 34.3375 25.2875 34.75 25.35V19L27.25 11.5M26 13.375L32.875 20.25H26V13.375Z" fill="#7EBE39"/>
</svg>
