<?xml version="1.0" encoding="utf-8"?>
<!-- Generator: Adobe Illustrator 24.2.0, SVG Export Plug-In . SVG Version: 6.00 Build 0)  -->
<svg version="1.1" id="Layer_1" xmlns="http://www.w3.org/2000/svg" xmlns:xlink="http://www.w3.org/1999/xlink" x="0px" y="0px"
	 viewBox="0 0 512 177" style="enable-background:new 0 0 512 177;" xml:space="preserve">
<style type="text/css">
	.st0{fill:#181851;}
	.st1{fill:#F15A24;}
</style>
<g>
	<path class="st0" d="M35.7,116.7c-9.2,0-16.7-7.5-16.7-16.7V31.8C19,22.5,26.5,15,35.7,15s16.7,7.5,16.7,16.7v68.2
		C52.5,109.2,45,116.7,35.7,116.7z"/>
	<path class="st0" d="M81.3,163c-34.3,0-62.2-27.9-62.2-62.2S47,38.6,81.3,38.6s62.2,27.9,62.2,62.2S115.6,163,81.3,163z M81.3,72.1
		c-15.8,0-28.7,12.9-28.7,28.7s12.9,28.7,28.7,28.7s28.7-12.9,28.7-28.7S97.1,72.1,81.3,72.1z"/>
	<circle class="st1" cx="126.6" cy="145.3" r="16.7"/>
	<g>
		<g>
			<path class="st0" d="M207.4,79.3c8,0,14.9,2.9,20.5,8.7c5.7,5.8,8.5,12.7,8.5,20.9c0,8.1-2.8,15.1-8.5,20.9
				c-5.7,5.8-12.5,8.6-20.5,8.6c-7.3,0-13.8-2.5-19.3-7.4v2.6c0,1.4-0.5,2.5-1.4,3.5c-1,0.9-2.1,1.4-3.5,1.4c-1.4,0-2.5-0.5-3.5-1.4
				c-0.9-0.9-1.4-2.1-1.4-3.5V64.2c0-1.4,0.5-2.5,1.4-3.5c1-1,2.1-1.5,3.5-1.5c1.3,0,2.5,0.5,3.5,1.5c0.9,0.9,1.4,2.1,1.4,3.5v22.5
				C193.6,81.8,200.1,79.3,207.4,79.3z M207.4,128.6c5.3,0,9.9-1.9,13.6-5.8c3.7-3.9,5.6-8.5,5.6-13.9c0-5.5-1.9-10.1-5.6-14
				c-3.8-3.8-8.3-5.8-13.6-5.8c-5.3,0-9.9,1.9-13.6,5.8c-3.8,3.9-5.7,8.5-5.7,14c0,5.4,1.9,10.1,5.7,13.9
				C197.5,126.7,202.1,128.6,207.4,128.6z"/>
			<path class="st0" d="M250.6,59.3c1,0,2.1,0.3,3.1,0.8c1,0.5,1.8,1.3,2.4,2.3c0.6,1,0.9,2.1,0.9,3.1c0,1.1-0.3,2.1-0.8,3.1
				c-0.6,1-1.3,1.8-2.3,2.3c-1,0.6-2,0.8-3.1,0.8c-1.1,0-2.1-0.3-3.1-0.8c-1-0.6-1.8-1.3-2.3-2.3c-0.6-1-0.8-2-0.8-3.1
				c0-1.1,0.3-2.1,0.8-3.1c0.6-1,1.3-1.8,2.4-2.3C248.5,59.6,249.6,59.3,250.6,59.3z M250.6,79.3c1.4,0,2.5,0.5,3.5,1.5
				c1,0.9,1.5,2.1,1.5,3.5v49.3c0,1.4-0.5,2.5-1.5,3.5c-0.9,0.9-2.1,1.4-3.5,1.4c-1.4,0-2.5-0.5-3.5-1.4c-1-0.9-1.5-2.1-1.5-3.5
				V84.2c0-1.4,0.5-2.5,1.5-3.5C248.1,79.8,249.2,79.3,250.6,79.3z"/>
			<path class="st0" d="M273.9,59.2c1.3,0,2.5,0.5,3.5,1.5c0.9,0.9,1.4,2.1,1.4,3.5v69.4c0,1.4-0.5,2.5-1.4,3.5
				c-1,0.9-2.1,1.4-3.5,1.4c-1.4,0-2.5-0.5-3.5-1.4c-0.9-0.9-1.4-2.1-1.4-3.5V64.2c0-1.4,0.5-2.5,1.4-3.5
				C271.3,59.7,272.5,59.2,273.9,59.2z"/>
			<path class="st0" d="M297.3,59.2c1.3,0,2.5,0.5,3.5,1.5c0.9,0.9,1.4,2.1,1.4,3.5v69.4c0,1.4-0.5,2.5-1.4,3.5
				c-1,0.9-2.1,1.4-3.5,1.4c-1.4,0-2.5-0.5-3.5-1.4c-0.9-0.9-1.4-2.1-1.4-3.5V64.2c0-1.4,0.5-2.5,1.4-3.5
				C294.8,59.7,295.9,59.2,297.3,59.2z"/>
			<path class="st0" d="M319.8,129.8c-2.7-2.7-4.8-5.8-6.3-9.3c-1.6-3.7-2.4-7.5-2.4-11.5c0-8.2,2.9-15.2,8.7-21
				c2.8-2.7,5.9-4.8,9.5-6.3c3.7-1.6,7.5-2.4,11.6-2.4c8.2,0,15.2,2.9,21,8.7c2.7,2.7,4.8,5.9,6.3,9.4c1.6,3.7,2.4,7.5,2.4,11.5
				c0,1.4-0.5,2.5-1.4,3.5c-1,1-2.1,1.5-3.5,1.5h-44.1c1.1,4.3,3.5,7.8,7,10.5c3.6,2.8,7.7,4.2,12.3,4.2c7.3,0,12.9-2.2,16.8-6.7
				c0.9-1,2-1.6,3.4-1.6c1.4-0.1,2.6,0.3,3.6,1.2c1,0.9,1.6,2,1.6,3.4c0.1,1.3-0.3,2.5-1.3,3.5c-5.9,6.6-13.9,10-24.1,10
				C332.7,138.4,325.6,135.5,319.8,129.8z M360.2,104c-1.1-4.3-3.4-7.9-7-10.7c-3.6-2.8-7.7-4.2-12.3-4.2c-4.6,0-8.7,1.4-12.4,4.2
				c-3.5,2.8-5.9,6.4-7,10.7H360.2z"/>
			<path class="st0" d="M405.6,79.3c1.4,0,2.5,0.5,3.5,1.5c1,0.9,1.5,2.1,1.5,3.5s-0.5,2.5-1.5,3.5c-0.9,1-2.1,1.5-3.5,1.5
				c-4.8,0-8.9,1.9-12.3,5.8c-3.4,3.9-5.1,8.5-5.1,14v24.6c0,1.4-0.5,2.5-1.4,3.5c-1,0.9-2.1,1.4-3.5,1.4c-1.4,0-2.5-0.5-3.5-1.4
				c-0.9-0.9-1.4-2.1-1.4-3.5V84.2c0-1.4,0.5-2.5,1.4-3.5c1-1,2.1-1.5,3.5-1.5c1.3,0,2.5,0.5,3.5,1.5c0.9,0.9,1.4,2.1,1.4,3.5v1.9
				C393.3,81.6,399.1,79.3,405.6,79.3z"/>
			<path class="st0" d="M453.1,59.2c10.7,0,19.9,3.9,27.5,11.6c7.6,7.7,11.4,17.1,11.4,28c0,10.9-3.8,20.2-11.4,27.9
				c-7.6,7.7-16.8,11.6-27.5,11.6c-10.7,0-19.9-3.9-27.5-11.6c-7.6-7.7-11.4-17-11.4-27.9c0-10.9,3.8-20.3,11.4-28
				C433.2,63.1,442.4,59.2,453.1,59.2z M453.1,128.6c8,0,14.9-2.9,20.5-8.7c5.7-5.8,8.5-12.8,8.5-21c0-8.2-2.8-15.2-8.5-21.1
				c-5.7-5.8-12.5-8.7-20.5-8.7c-8,0-14.9,2.9-20.5,8.7c-5.7,5.8-8.5,12.9-8.5,21.1c0,8.2,2.8,15.2,8.5,21
				C438.2,125.7,445.1,128.6,453.1,128.6z"/>
		</g>
		<circle class="st1" cx="482" cy="128.9" r="8.6"/>
	</g>
</g>
</svg>
