<?xml version="1.0" encoding="utf-8"?>
<!-- Generator: Adobe Illustrator 24.2.0, SVG Export Plug-In . SVG Version: 6.00 Build 0)  -->
<svg version="1.1" id="Layer_1" xmlns="http://www.w3.org/2000/svg" xmlns:xlink="http://www.w3.org/1999/xlink" x="0px" y="0px"
	 viewBox="0 0 512 151" style="enable-background:new 0 0 512 151;" xml:space="preserve">
<style type="text/css">
	.st0{fill:#CCCCCC;}
	.st1{fill:#F15A24;}
</style>
<g>
	<path class="st0" d="M33.8,100.1c-8.1,0-14.7-6.6-14.7-14.7V25.7c0-8.1,6.6-14.7,14.7-14.7s14.7,6.6,14.7,14.7v59.7
		C48.5,93.5,41.9,100.1,33.8,100.1z"/>
	<path class="st0" d="M73.7,140.7c-30,0-54.5-24.4-54.5-54.5s24.4-54.5,54.5-54.5s54.5,24.4,54.5,54.5S103.7,140.7,73.7,140.7z
		 M73.7,61c-13.9,0-25.1,11.3-25.1,25.1s11.3,25.1,25.1,25.1S98.8,100,98.8,86.2S87.6,61,73.7,61z"/>
	<circle class="st1" cx="113.4" cy="125.1" r="14.7"/>
</g>
<g>
	<g>
		<path class="st0" d="M193.7,55.7c8.2,0,15.3,3,21.1,8.9c5.8,5.9,8.7,13.1,8.7,21.5c0,8.4-2.9,15.5-8.7,21.4
			c-5.9,5.9-12.9,8.9-21.1,8.9c-7.5,0-14.1-2.5-19.8-7.6v2.6c0,1.4-0.5,2.6-1.5,3.6c-1,1-2.2,1.5-3.6,1.5c-1.4,0-2.6-0.5-3.6-1.5
			c-1-1-1.5-2.2-1.5-3.6V40.2c0-1.4,0.5-2.6,1.5-3.6c1-1,2.2-1.5,3.6-1.5c1.4,0,2.5,0.5,3.6,1.5c1,1,1.5,2.2,1.5,3.6v23.2
			C179.6,58.3,186.2,55.7,193.7,55.7z M193.7,106.4c5.5,0,10.1-2,14-5.9c3.8-4,5.8-8.8,5.8-14.3c0-5.6-1.9-10.4-5.8-14.4
			c-3.9-4-8.5-5.9-14-5.9c-5.5,0-10.1,2-14,5.9c-3.9,4-5.8,8.8-5.8,14.4c0,5.6,1.9,10.3,5.8,14.3
			C183.6,104.5,188.2,106.4,193.7,106.4z"/>
		<path class="st0" d="M238.1,35.3c1.1,0,2.1,0.3,3.2,0.8c1,0.6,1.8,1.4,2.4,2.4c0.6,1,0.9,2.1,0.9,3.2c0,1.1-0.3,2.2-0.9,3.2
			c-0.6,1-1.4,1.8-2.4,2.4c-1,0.6-2.1,0.9-3.2,0.9c-1.1,0-2.2-0.3-3.2-0.9c-1-0.6-1.8-1.4-2.4-2.4c-0.6-1-0.9-2.1-0.9-3.2
			c0-1.1,0.3-2.2,0.9-3.2c0.6-1,1.4-1.8,2.4-2.4C236,35.5,237,35.3,238.1,35.3z M238.1,55.7c1.4,0,2.6,0.5,3.6,1.5
			c1,1,1.5,2.2,1.5,3.6v50.7c0,1.4-0.5,2.6-1.5,3.6c-1,1-2.2,1.5-3.6,1.5c-1.4,0-2.6-0.5-3.6-1.5c-1-1-1.5-2.2-1.5-3.6V60.8
			c0-1.4,0.5-2.6,1.5-3.6C235.5,56.2,236.7,55.7,238.1,55.7z"/>
		<path class="st0" d="M262,35.2c1.4,0,2.5,0.5,3.6,1.5c1,1,1.5,2.2,1.5,3.6v71.3c0,1.4-0.5,2.6-1.5,3.6c-1,1-2.2,1.5-3.6,1.5
			c-1.4,0-2.6-0.5-3.6-1.5c-1-1-1.5-2.2-1.5-3.6V40.2c0-1.4,0.5-2.6,1.5-3.6C259.4,35.7,260.6,35.2,262,35.2z"/>
		<path class="st0" d="M286.1,35.2c1.4,0,2.6,0.5,3.6,1.5c1,1,1.5,2.2,1.5,3.6v71.3c0,1.4-0.5,2.6-1.5,3.6c-1,1-2.2,1.5-3.6,1.5
			c-1.4,0-2.6-0.5-3.6-1.5c-1-1-1.5-2.2-1.5-3.6V40.2c0-1.4,0.5-2.6,1.5-3.6C283.5,35.7,284.7,35.2,286.1,35.2z"/>
		<path class="st0" d="M309.2,107.6c-2.8-2.8-5-6-6.5-9.6c-1.6-3.8-2.4-7.7-2.4-11.8c0-8.4,3-15.6,8.9-21.5c2.8-2.8,6.1-5,9.8-6.5
			c3.8-1.6,7.7-2.4,11.9-2.4c8.4,0,15.6,3,21.6,8.9c2.8,2.8,5,6,6.5,9.7c1.6,3.8,2.4,7.7,2.4,11.9c0,1.4-0.5,2.6-1.5,3.6
			c-1,1-2.2,1.5-3.6,1.5H311c1.1,4.4,3.6,8,7.2,10.8c3.7,2.9,7.9,4.3,12.7,4.3c7.5,0,13.2-2.3,17.3-6.8c0.9-1,2-1.6,3.4-1.7
			c1.4-0.1,2.6,0.3,3.7,1.2c1,0.9,1.6,2.1,1.7,3.5c0.1,1.4-0.4,2.6-1.3,3.6c-6,6.8-14.3,10.2-24.8,10.2
			C322.4,116.5,315.2,113.5,309.2,107.6z M350.7,81.2c-1.1-4.5-3.5-8.1-7.2-11c-3.7-2.9-8-4.4-12.7-4.4c-4.7,0-9,1.5-12.7,4.4
			c-3.6,2.9-6,6.5-7.2,11H350.7z"/>
		<path class="st0" d="M397.4,55.7c1.4,0,2.6,0.5,3.6,1.5c1,1,1.5,2.2,1.5,3.6s-0.5,2.6-1.5,3.6c-1,1-2.2,1.5-3.6,1.5
			c-4.9,0-9.1,2-12.6,5.9c-3.5,4-5.2,8.8-5.2,14.4v25.3c0,1.4-0.5,2.6-1.5,3.6c-1,1-2.2,1.5-3.6,1.5c-1.4,0-2.6-0.5-3.6-1.5
			c-1-1-1.5-2.2-1.5-3.6V60.8c0-1.4,0.5-2.6,1.5-3.6c1-1,2.2-1.5,3.6-1.5c1.4,0,2.5,0.5,3.6,1.5c1,1,1.5,2.2,1.5,3.6v2
			C384.7,58.1,390.7,55.7,397.4,55.7z"/>
		<path class="st0" d="M446.2,35.2c11,0,20.5,4,28.3,12c7.8,7.9,11.7,17.5,11.7,28.8c0,11.2-3.9,20.8-11.7,28.7
			c-7.8,7.9-17.3,11.9-28.3,11.9c-11,0-20.4-4-28.2-11.9c-7.8-7.9-11.7-17.5-11.7-28.7c0-11.2,3.9-20.8,11.7-28.8
			C425.7,39.1,435.2,35.2,446.2,35.2z M446.2,106.4c8.3,0,15.3-3,21.1-8.9c5.9-6,8.8-13.2,8.8-21.6c0-8.4-2.9-15.7-8.8-21.7
			c-5.8-6-12.9-8.9-21.1-8.9c-8.2,0-15.3,3-21.1,8.9c-5.9,6-8.8,13.2-8.8,21.7c0,8.4,2.9,15.6,8.8,21.6
			C430.9,103.4,438,106.4,446.2,106.4z"/>
	</g>
	<circle class="st1" cx="475.9" cy="106.7" r="8.9"/>
</g>
</svg>
