<?xml version="1.0" encoding="utf-8"?>
<!-- Generator: Adobe Illustrator 24.2.0, SVG Export Plug-In . SVG Version: 6.00 Build 0)  -->
<svg version="1.1" id="Layer_1" xmlns="http://www.w3.org/2000/svg" xmlns:xlink="http://www.w3.org/1999/xlink" x="0px" y="0px"
	 viewBox="0 0 512 512" style="enable-background:new 0 0 512 512;" xml:space="preserve">
<style type="text/css">
	.st0{fill:#CCCCCC;}
	.st1{fill:#F15A24;}
</style>
<g>
	<path class="st0" d="M108.8,342.6c-28.8,0-52.2-23.4-52.2-52.2V78c0-28.8,23.4-52.2,52.2-52.2S161,49.1,161,78v212.5
		C161,319.3,137.6,342.6,108.8,342.6z"/>
	<path class="st0" d="M250.7,487c-106.9,0-193.8-87-193.8-193.8s87-193.8,193.8-193.8s193.8,87,193.8,193.8S357.5,487,250.7,487z
		 M250.7,203.7c-49.3,0-89.5,40.1-89.5,89.5s40.1,89.5,89.5,89.5s89.5-40.1,89.5-89.5S300,203.7,250.7,203.7z"/>
	<circle class="st1" cx="392.1" cy="431.8" r="52.2"/>
</g>
</svg>
