<svg width="50" height="50" viewBox="0 0 50 50" fill="none" xmlns="http://www.w3.org/2000/svg">
<rect width="50" height="50" rx="25" fill="#E5F2D7"/>
<path d="M17.5359 22.4913L22.0746 27.03L32.5241 16.5805C32.9111 16.1935 33.4037 16 34.0018 16C34.5999 16 35.0925 16.1935 35.4795 16.5805C35.8665 16.9675 36.06 17.4601 36.06 18.0582C36.06 18.6563 35.8665 19.1489 35.4795 19.5359L23.5523 31.4631C23.1301 31.8853 22.6375 32.0964 22.0746 32.0964C21.5117 32.0964 21.0191 31.8853 20.5969 31.4631L14.5805 25.4467C14.1935 25.0597 14 24.5672 14 23.969C14 23.3709 14.1935 22.8784 14.5805 22.4913C14.9675 22.1043 15.4601 21.9108 16.0582 21.9108C16.6563 21.9108 17.1489 22.1043 17.5359 22.4913Z" fill="#7EBE39"/>
</svg>
